:SAMPLES-PER-SECOND 30
:FRAME-RANGE 1-3549
:FULLY-SPECIFIED
:DEGREES
2440
root  -55.8195 39.1828 -36.2031 -2.05841 88.2179 -5.96887
RightUpLeg  0.189959 -13.6134 -11.4861
RightLeg  9.54118 -20.6137 0.564724
RightFoot  -7.17163 -0.600132 15.0572
RightToes  -1.11029e-010 1.2921e-014 -6.02303e-014
Spine  5.70551 1.0191 9.59511
Spine1  -0.507944 2.37326 -4.36058
HEad  3.10987 14.0993 -8.71356
LeftShoulder1  1.3459 0.136246 -33.899
LeftArm  14.6012 13.8671 -28.401
LeftForeArm  1.67007 -11.7841 -14.0677
LeftHand  0.0971417 0.924879 -2.6917
RightShoulder  6.4948 7.93034 49.7689
RightArm  20.6082 -0.535254 12.3975
RightForeArm  20.083 3.62249 16.9013
RightHand  -0.592488 4.14765 -7.47476
LeftUpLeg  -14.6447 20.6522 13.7054
LeftLeg  18.5444 3.93968 1.79217
LeftFoot  -2.74335 0.559778 -7.22236
LeftToes  -1.9349e-011 -1.19469e-011 -2.02219e-012
2441
root  -55.8019 39.0669 -37.2526 -86.0541 89.6013 -90.6537
RightUpLeg  0.202941 -14.147 -12.7252
RightLeg  8.92944 -21.6691 0.492248
RightFoot  -6.01228 -0.801081 16.2274
RightToes  -1.11029e-010 1.2921e-014 -6.02303e-014
Spine  5.49464 1.15244 9.30908
Spine1  -0.968173 2.52727 -4.88453
HEad  2.85378 12.8913 -8.15355
LeftShoulder1  1.31249 0.217122 -33.8652
LeftArm  14.6807 14.6561 -27.6829
LeftForeArm  1.54452 -11.2789 -14.4388
LeftHand  0.0903062 0.947979 -2.52842
RightShoulder  6.59552 8.21183 49.3268
RightArm  19.9082 -0.264515 12.56
RightForeArm  19.8107 4.85668 16.3773
RightHand  -0.582454 4.06466 -7.41252
LeftUpLeg  -13.8691 24.2142 14.1943
LeftLeg  16.5948 5.93681 2.30843
LeftFoot  -2.6097 0.553809 -7.04413
LeftToes  -1.9349e-011 -1.19469e-011 -2.02219e-012
2442
root  -55.7097 38.9542 -38.3998 -171.003 87.5239 -176.309
RightUpLeg  1.03809 -15.0447 -14.6458
RightLeg  7.52547 -23.1721 0.734369
RightFoot  -4.56102 -1.05797 17.2108
RightToes  -1.11029e-010 1.2921e-014 -6.02303e-014
Spine  5.05238 1.13437 8.51593
Spine1  -1.1659 2.50286 -5.42985
HEad  2.68443 10.9291 -7.30606
LeftShoulder1  1.29475 0.250443 -33.7299
LeftArm  12.9607 15.1412 -26.9938
LeftForeArm  3.41804 -10.2161 -14.9073
LeftHand  0.088512 0.921309 -2.46193
RightShoulder  6.5573 8.27524 48.7761
RightArm  21.133 -0.544286 12.7169
RightForeArm  17.7535 7.24455 15.4861
RightHand  -0.580251 4.06021 -7.38879
LeftUpLeg  -13.4638 27.0224 13.3317
LeftLeg  15.0352 8.25148 2.64892
LeftFoot  -1.97031 0.74734 -8.96228
LeftToes  -1.9349e-011 -1.19469e-011 -2.02219e-012
2443
root  -55.5588 38.8418 -39.6761 178.151 84.3149 172.173
RightUpLeg  2.57088 -16.2788 -17.4499
RightLeg  5.89079 -24.8873 0.983006
RightFoot  -3.18326 -1.29007 17.6536
RightToes  -1.11029e-010 1.2921e-014 -6.02303e-014
Spine  4.68319 0.980171 7.05376
Spine1  -1.27773 2.31313 -5.89472
HEad  2.76598 7.79733 -6.33163
LeftShoulder1  1.29519 0.250477 -33.7437
LeftArm  8.79553 14.7956 -26.23
LeftForeArm  7.40082 -7.99513 -15.6559
LeftHand  0.110302 0.717357 -2.87172
RightShoulder  6.25349 7.86307 48.2016
RightArm  25.2055 -1.35912 12.5985
RightForeArm  13.1063 11.1075 13.7333
RightHand  -0.569827 4.05543 -7.2646
LeftUpLeg  -14.3196 29.7118 10.6424
LeftLeg  15.1236 7.08308 2.00575
LeftFoot  -1.53701 1.33823 -15.4192
LeftToes  -1.9349e-011 -1.19469e-011 -2.02219e-012
2444
root  -55.3919 38.7709 -40.9389 171.6 80.3838 164.976
RightUpLeg  3.61839 -17.2563 -20.429
RightLeg  6.15342 -26.1782 -0.239866
RightFoot  -3.88785 -1.09279 16.2662
RightToes  -1.11029e-010 1.2921e-014 -6.02303e-014
Spine  4.77889 0.870962 4.25895
Spine1  -1.5232 2.00592 -5.49632
HEad  2.81564 3.45299 -5.43105
LeftShoulder1  1.33018 0.197801 -34.1632
LeftArm  9.87128 13.2136 -24.9923
LeftForeArm  6.42924 -7.20265 -16.1998
LeftHand  0.103642 0.901258 -2.84404
RightShoulder  5.7443 6.94626 48.1663
RightArm  29.5171 -2.20136 12.0463
RightForeArm  7.94134 14.8271 11.3881
RightHand  -0.58305 4.28316 -7.26542
LeftUpLeg  -17.3187 34.5964 5.20833
LeftLeg  17.1988 -0.954242 -0.0431786
LeftFoot  -2.33273 0.937629 -11.6945
LeftToes  -1.9349e-011 -1.19469e-011 -2.02219e-012
